<svg id="visual" viewBox="0 0 960 540" width="960" height="540" xmlns="http://www.w3.org/2000/svg" xmlns:xlink="http://www.w3.org/1999/xlink" version="1.1"><rect x="0" y="0" width="960" height="540" fill="#fff"></rect><g transform="translate(509.6077641025695 234.05997407908808)"><path d="M165.9 -150.7C209.2 -122.6 234.6 -61.3 230.4 -4.2C226.1 52.8 192.3 105.6 148.9 155.6C105.6 205.6 52.8 252.8 -3.5 256.3C-59.9 259.9 -119.7 219.7 -176 169.7C-232.2 119.7 -284.9 59.9 -289.7 -4.8C-294.5 -69.5 -251.6 -139.1 -195.3 -167.2C-139.1 -195.3 -69.5 -182 -4.1 -177.9C61.3 -173.8 122.6 -178.8 165.9 -150.7" fill="#8067e8"></path></g></svg>
<svg id="visual" viewBox="0 0 960 540" width="960" height="540" xmlns="http://www.w3.org/2000/svg" xmlns:xlink="http://www.w3.org/1999/xlink" version="1.1"><rect x="0" y="0" width="960" height="540" fill="#fff"></rect><g transform="translate(469.4909235243492 313.91794492322504)"><path d="M181.4 -189.7C229.4 -133.4 258.7 -66.7 262.5 3.8C266.2 74.2 244.5 148.5 196.5 176.6C148.5 204.7 74.2 186.8 -1.2 187.9C-76.6 189.1 -153.2 209.5 -196.5 181.3C-239.9 153.2 -249.9 76.6 -236.1 13.8C-222.4 -49 -184.7 -98.1 -141.4 -154.3C-98.1 -210.6 -49 -274 8.8 -282.9C66.7 -291.7 133.4 -245.9 181.4 -189.7" fill="#8067e8"></path></g></svg>
<svg id="visual" viewBox="0 0 960 540" width="960" height="540" xmlns="http://www.w3.org/2000/svg" xmlns:xlink="http://www.w3.org/1999/xlink" version="1.1"><rect x="0" y="0" width="960" height="540" fill="#fff"></rect><g transform="translate(499.9784289953044 286.3570695849552)"><path d="M187.2 -197.6C215.4 -159.1 192.1 -79.5 188.7 -3.4C185.3 72.8 201.9 145.7 173.8 177.3C145.7 209 72.8 199.5 11.9 187.6C-49 175.7 -98.1 161.4 -142.6 129.7C-187.1 98.1 -227 49 -237.9 -10.8C-248.7 -70.7 -230.4 -141.4 -185.9 -179.9C-141.4 -218.4 -70.7 -224.7 4.4 -229.1C79.5 -233.5 159.1 -236.1 187.2 -197.6" fill="#8067e8"></path></g></svg>
<svg id="visual" viewBox="0 0 960 540" width="960" height="540" xmlns="http://www.w3.org/2000/svg" xmlns:xlink="http://www.w3.org/1999/xlink" version="1.1"><rect x="0" y="0" width="960" height="540" fill="#fff"></rect><g transform="translate(501.5523426089484 310.8622455875121)"><path d="M165.4 -170.2C202.6 -128.2 212.8 -64.1 206.6 -6.1C200.5 51.9 178 103.7 140.9 131.8C103.7 160 51.9 164.4 4.9 159.4C-42 154.5 -83.9 140.2 -129.4 112C-174.9 83.9 -224 42 -242.8 -18.8C-261.5 -79.5 -250.1 -159.1 -204.6 -201.1C-159.1 -243.1 -79.5 -247.5 -7.7 -239.8C64.1 -232.1 128.2 -212.2 165.4 -170.2" fill="#8067e8"></path></g></svg>
<svg id="visual" viewBox="0 0 960 540" width="960" height="540" xmlns="http://www.w3.org/2000/svg" xmlns:xlink="http://www.w3.org/1999/xlink" version="1.1"><rect x="0" y="0" width="960" height="540" fill="#fff"></rect><g transform="translate(499.71859610373207 277.97683528704295)"><path d="M126.6 -134.9C173.6 -79.6 227.8 -39.8 241.6 13.8C255.4 67.4 228.8 134.8 181.8 180.5C134.8 226.2 67.4 250.1 -0.1 250.2C-67.6 250.3 -135.3 226.6 -191.5 181C-247.8 135.3 -292.6 67.6 -283.5 9.2C-274.3 -49.3 -211 -98.5 -154.8 -153.9C-98.5 -209.2 -49.3 -270.6 -4.7 -265.9C39.8 -261.1 79.6 -190.2 126.6 -134.9" fill="#8067e8"></path></g></svg>
<svg id="visual" viewBox="0 0 960 540" width="960" height="540" xmlns="http://www.w3.org/2000/svg" xmlns:xlink="http://www.w3.org/1999/xlink" version="1.1"><rect x="0" y="0" width="960" height="540" fill="#fff"></rect><g transform="translate(504.1782989663727 265.32502520067465)"><path d="M124.4 -122.1C169.2 -79.6 219.1 -39.8 222.8 3.7C226.5 47.1 183.9 94.3 139.1 145.6C94.3 196.9 47.1 252.5 2.5 250C-42.2 247.5 -84.4 187 -135.4 135.7C-186.4 84.4 -246.2 42.2 -264.9 -18.7C-283.5 -79.5 -261.1 -159.1 -210.1 -201.6C-159.1 -244.1 -79.5 -249.5 -19.9 -229.7C39.8 -209.8 79.6 -164.6 124.4 -122.1" fill="#8067e8"></path></g></svg>
<svg id="visual" viewBox="0 0 960 540" width="960" height="540" xmlns="http://www.w3.org/2000/svg" xmlns:xlink="http://www.w3.org/1999/xlink" version="1.1"><rect x="0" y="0" width="960" height="540" fill="#fff"></rect><g transform="translate(472.0482039838292 303.9099174708388)"><path d="M135.1 -135.8C190.6 -79.6 261.8 -39.8 278.9 17.1C296 74 259 148 203.5 182.2C148 216.4 74 210.7 5.9 204.8C-62.2 198.9 -124.5 192.8 -175.8 158.6C-227.1 124.5 -267.6 62.2 -267.2 0.4C-266.9 -61.5 -225.7 -123 -174.4 -179.3C-123 -235.5 -61.5 -286.5 -10.9 -275.6C39.8 -264.8 79.6 -192.1 135.1 -135.8" fill="#8067e8"></path></g></svg>
<svg id="visual" viewBox="0 0 960 540" width="960" height="540" xmlns="http://www.w3.org/2000/svg" xmlns:xlink="http://www.w3.org/1999/xlink" version="1.1"><rect x="0" y="0" width="960" height="540" fill="#fff"></rect><g transform="translate(487.595247726664 271.8242904628525)"><path d="M174.8 -185.9C220 -129.6 245.5 -64.8 236.2 -9.3C226.9 46.2 182.7 92.4 137.6 146.9C92.4 201.4 46.2 264.2 -10 274.2C-66.2 284.2 -132.5 241.5 -181.8 187C-231.1 132.5 -263.6 66.2 -250.3 13.2C-237.1 -39.8 -178.2 -79.6 -128.9 -135.8C-79.6 -192.1 -39.8 -264.8 12.5 -277.3C64.8 -289.8 129.6 -242.1 174.8 -185.9" fill="#8067e8"></path></g></svg>
<svg id="visual" viewBox="0 0 960 540" width="960" height="540" xmlns="http://www.w3.org/2000/svg" xmlns:xlink="http://www.w3.org/1999/xlink" version="1.1"><rect x="0" y="0" width="960" height="540" fill="#fff"></rect><g transform="translate(512.497125492227 297.6958687157754)"><path d="M193.6 -199.8C228.1 -159.1 217.5 -79.5 200.3 -17.3C183 45 159 90 124.5 118.2C90 146.3 45 157.5 -11.3 168.8C-67.6 180.2 -135.3 191.5 -190.3 163.4C-245.3 135.3 -287.6 67.6 -280.6 7.1C-273.5 -53.5 -217 -107 -162 -147.7C-107 -188.3 -53.5 -216.2 13 -229.2C79.5 -242.2 159.1 -240.4 193.6 -199.8" fill="#8067e8"></path></g></svg>
<svg id="visual" viewBox="0 0 960 540" width="960" height="540" xmlns="http://www.w3.org/2000/svg" xmlns:xlink="http://www.w3.org/1999/xlink" version="1.1"><rect x="0" y="0" width="960" height="540" fill="#fff"></rect><g transform="translate(489.7835791545698 263.93713166656653)"><path d="M188.2 -166.8C244.5 -132 291 -66 277.9 -13.1C264.8 39.8 192.1 79.6 135.8 121.6C79.6 163.6 39.8 207.8 -15.9 223.7C-71.7 239.7 -143.3 227.3 -199.3 185.3C-255.3 143.3 -295.7 71.7 -299.4 -3.8C-303.2 -79.2 -270.4 -158.4 -214.4 -193.2C-158.4 -228.1 -79.2 -218.5 -6.6 -211.9C66 -205.3 132 -201.7 188.2 -166.8" fill="#8067e8"></path></g></svg>
<svg id="visual" viewBox="0 0 960 540" width="960" height="540" xmlns="http://www.w3.org/2000/svg" xmlns:xlink="http://www.w3.org/1999/xlink" version="1.1"><rect x="0" y="0" width="960" height="540" fill="#fff"></rect><g transform="translate(484.0200292879269 261.01638546834033)"><path d="M152.2 -157.6C190.4 -114.1 209.7 -57 205.1 -4.6C200.5 47.8 172 95.7 133.9 138.2C95.7 180.7 47.8 217.8 -15.9 233.7C-79.5 249.5 -159.1 244.1 -192.8 201.6C-226.4 159.1 -214.2 79.5 -194.3 19.9C-174.4 -39.8 -146.9 -79.6 -113.2 -123.1C-79.6 -166.6 -39.8 -213.8 8.6 -222.4C57 -231 114.1 -201.1 152.2 -157.6" fill="#8067e8"></path></g></svg>
<svg id="visual" viewBox="0 0 960 540" width="960" height="540" xmlns="http://www.w3.org/2000/svg" xmlns:xlink="http://www.w3.org/1999/xlink" version="1.1"><rect x="0" y="0" width="960" height="540" fill="#fff"></rect><g transform="translate(433.8973331394004 335.0349834937791)"><path d="M213.6 -214.6C268.1 -159.1 297.5 -79.5 277.6 -20C257.6 39.6 188.2 79.2 133.7 107.3C79.2 135.4 39.6 152.1 -9.5 161.7C-58.7 171.2 -117.4 173.6 -146.5 145.5C-175.7 117.4 -175.4 58.7 -182.2 -6.8C-189 -72.4 -203.1 -144.7 -173.9 -200.2C-144.7 -255.7 -72.4 -294.4 3.6 -298C79.5 -301.5 159.1 -270.1 213.6 -214.6" fill="#8067e8"></path></g></svg>
<svg id="visual" viewBox="0 0 960 540" width="960" height="540" xmlns="http://www.w3.org/2000/svg" xmlns:xlink="http://www.w3.org/1999/xlink" version="1.1"><rect x="0" y="0" width="960" height="540" fill="#fff"></rect><g transform="translate(457.3804924764024 282.8005585297364)"><path d="M188.5 -195.8C237.5 -139.5 265.8 -69.8 253.5 -12.3C241.3 45.3 188.5 90.5 139.5 143.8C90.5 197.2 45.3 258.6 1.4 257.2C-42.4 255.8 -84.9 191.5 -127.4 138.2C-169.9 84.9 -212.4 42.4 -211.1 1.3C-209.8 -39.8 -164.6 -79.6 -122.1 -135.8C-79.6 -192.1 -39.8 -264.8 15 -279.8C69.8 -294.8 139.5 -252 188.5 -195.8" fill="#8067e8"></path></g></svg>
<svg id="visual" viewBox="0 0 960 540" width="960" height="540" xmlns="http://www.w3.org/2000/svg" xmlns:xlink="http://www.w3.org/1999/xlink" version="1.1"><rect x="0" y="0" width="960" height="540" fill="#fff"></rect><g transform="translate(485.8664719593832 304.0528172374942)"><path d="M166.5 -182.3C198.2 -134.8 194.1 -67.4 180.3 -13.8C166.4 39.8 142.9 79.6 111.2 114.4C79.6 149.2 39.8 179.1 -11.9 191C-63.6 203 -127.3 196.9 -156.1 162.1C-184.9 127.3 -179 63.6 -186.9 -8C-194.9 -79.5 -216.8 -159.1 -187.9 -206.6C-159.1 -254.1 -79.5 -269.5 -6.1 -263.5C67.4 -257.4 134.8 -229.8 166.5 -182.3" fill="#8067e8"></path></g></svg>
<svg id="visual" viewBox="0 0 960 540" width="960" height="540" xmlns="http://www.w3.org/2000/svg" xmlns:xlink="http://www.w3.org/1999/xlink" version="1.1"><rect x="0" y="0" width="960" height="540" fill="#fff"></rect><g transform="translate(533.4830531469596 315.02729372982327)"><path d="M176.1 -198.7C204.3 -148 186.5 -74 173.7 -12.8C160.8 48.3 152.9 96.6 124.8 126C96.6 155.3 48.3 165.7 -10.7 176.4C-69.8 187.1 -139.5 198.2 -195.8 168.9C-252 139.5 -294.8 69.8 -297.9 -3.2C-301.1 -76.1 -264.8 -152.3 -208.5 -202.9C-152.3 -253.6 -76.1 -278.8 -1.1 -277.7C74 -276.7 148 -249.4 176.1 -198.7" fill="#8067e8"></path></g></svg>
<svg id="visual" viewBox="0 0 960 540" width="960" height="540" xmlns="http://www.w3.org/2000/svg" xmlns:xlink="http://www.w3.org/1999/xlink" version="1.1"><rect x="0" y="0" width="960" height="540" fill="#fff"></rect><g transform="translate(457.204401120173 249.53902643136317)"><path d="M190.8 -186.3C236 -145.7 253.5 -72.8 244.1 -9.4C234.6 54 198.3 108 153.1 162C108 216 54 270 -9.4 279.4C-72.8 288.8 -145.7 253.7 -173.8 199.7C-201.9 145.7 -185.3 72.8 -188.7 -3.4C-192.1 -79.5 -215.4 -159.1 -187.2 -199.8C-159.1 -240.4 -79.5 -242.2 -3.4 -238.9C72.8 -235.5 145.7 -227 190.8 -186.3" fill="#8067e8"></path></g></svg>
<svg id="visual" viewBox="0 0 960 540" width="960" height="540" xmlns="http://www.w3.org/2000/svg" xmlns:xlink="http://www.w3.org/1999/xlink" version="1.1"><rect x="0" y="0" width="960" height="540" fill="#fff"></rect><g transform="translate(435.62492210396374 300.1668180853574)"><path d="M191.5 -183.3C247.8 -135.3 292.6 -67.6 293.1 0.5C293.6 68.6 249.7 137.2 193.4 165.3C137.2 193.4 68.6 181.1 -4.2 185.3C-77.1 189.6 -154.1 210.4 -185.3 182.3C-216.5 154.1 -201.7 77.1 -194.3 7.4C-186.9 -62.2 -186.8 -124.5 -155.6 -172.5C-124.5 -220.5 -62.2 -254.2 2.7 -256.9C67.6 -259.6 135.3 -231.3 191.5 -183.3" fill="#8067e8"></path></g></svg>
<svg id="visual" viewBox="0 0 960 540" width="960" height="540" xmlns="http://www.w3.org/2000/svg" xmlns:xlink="http://www.w3.org/1999/xlink" version="1.1"><rect x="0" y="0" width="960" height="540" fill="#fff"></rect><g transform="translate(430.00529422937666 269.37585481706475)"><path d="M144.4 -116.3C200.7 -88.2 269.1 -44.1 278 9C287 62 236.5 124 180.2 153.1C124 182.3 62 178.7 2.8 175.8C-56.3 173 -112.7 171 -141.3 141.8C-170 112.7 -171 56.3 -175.1 -4.1C-179.2 -64.6 -186.5 -129.2 -157.8 -157.3C-129.2 -185.4 -64.6 -177.1 -10.3 -166.8C44.1 -156.6 88.2 -144.4 144.4 -116.3" fill="#8067e8"></path></g></svg>
<svg id="visual" viewBox="0 0 960 540" width="960" height="540" xmlns="http://www.w3.org/2000/svg" xmlns:xlink="http://www.w3.org/1999/xlink" version="1.1"><rect x="0" y="0" width="960" height="540" fill="#fff"></rect><g transform="translate(487.1392321908693 296.1275205347331)"><path d="M158.2 -165.6C207 -109.4 250 -54.7 253.8 3.8C257.6 62.2 222.1 124.5 173.3 170C124.5 215.5 62.2 244.2 11.2 233C-39.8 221.8 -79.6 170.6 -132.2 125.1C-184.9 79.6 -250.4 39.8 -265.1 -14.6C-279.7 -69.1 -243.5 -138.1 -190.8 -194.4C-138.1 -250.6 -69.1 -294.1 -7.2 -286.9C54.7 -279.7 109.4 -221.9 158.2 -165.6" fill="#8067e8"></path></g></svg>
<svg id="visual" viewBox="0 0 960 540" width="960" height="540" xmlns="http://www.w3.org/2000/svg" xmlns:xlink="http://www.w3.org/1999/xlink" version="1.1"><rect x="0" y="0" width="960" height="540" fill="#fff"></rect><g transform="translate(420.6088491812965 231.97766823494192)"><path d="M207 -187.6C259.8 -154.1 288.4 -77.1 289.6 1.2C290.9 79.5 264.8 159.1 211.9 214.3C159.1 269.4 79.5 300.2 18.7 281.5C-42.2 262.9 -84.4 194.7 -112.5 139.5C-140.6 84.4 -154.7 42.2 -163.9 -9.2C-173.1 -60.6 -177.4 -121.2 -149.3 -154.7C-121.2 -188.2 -60.6 -194.6 8.2 -202.8C77.1 -211.1 154.1 -221.1 207 -187.6" fill="#8067e8"></path></g></svg>
<svg id="visual" viewBox="0 0 960 540" width="960" height="540" xmlns="http://www.w3.org/2000/svg" xmlns:xlink="http://www.w3.org/1999/xlink" version="1.1"><rect x="0" y="0" width="960" height="540" fill="#fff"></rect><g transform="translate(428.5612103878655 276.7348421630274)"><path d="M143 -129.7C199.2 -86.7 268.4 -43.4 268.8 0.5C269.3 44.3 201.1 88.6 144.9 127C88.6 165.3 44.3 197.6 -5.7 203.3C-55.6 209 -111.3 187.9 -139.4 149.6C-167.5 111.3 -168.1 55.6 -164.2 3.9C-160.4 -47.8 -151.9 -95.7 -123.8 -138.7C-95.7 -181.7 -47.8 -219.8 -2.2 -217.6C43.4 -215.4 86.7 -172.7 143 -129.7" fill="#8067e8"></path></g></svg>
