<?xml version="1.0" encoding="UTF-8"?>
<svg id="Layer_2" data-name="Layer 2" xmlns="http://www.w3.org/2000/svg" xmlns:xlink="http://www.w3.org/1999/xlink" viewBox="0 0 512 512">
  <defs>
    <style>
      .cls-1 {
        fill: url(#linear-gradient);
      }

      .cls-1, .cls-2 {
        stroke-width: 0px;
      }

      .cls-2 {
        fill: #fff;
        fill-rule: evenodd;
      }
    </style>
    <linearGradient id="linear-gradient" x1="-48.4" y1="652.73" x2="-48.4" y2="651.73" gradientTransform="translate(25039 334197) scale(512 -512)" gradientUnits="userSpaceOnUse">
      <stop offset="0" stop-color="#1ac9fb"/>
      <stop offset="1" stop-color="#1d70f1"/>
    </linearGradient>
  </defs>
  <g id="Layer_1-2" data-name="Layer 1">
    <g id="iOSicon---App-Store">
      <rect id="Rectangle" class="cls-1" width="512" height="512" rx="111.02" ry="111.02"/>
      <path id="Combined-Shape" class="cls-2" d="m289.15,180.39l67.74,118.04h51.26c2.59,0,5.17-.01,7.76.14,2.35.14,4.64.42,6.92,1.06,4.8,1.35,8.99,4.17,12.02,8.17,3.01,3.97,4.64,8.84,4.64,13.83s-1.63,9.86-4.64,13.83c-3.03,4-7.22,6.82-12.02,8.17-2.28.64-4.57.93-6.92,1.06-2.16.12-4.31.14-6.47.14h-25.93s18.77,32.71,18.77,32.71c1.29,2.26,2.6,4.5,3.76,6.83,1.06,2.12,1.96,4.26,2.54,6.56,1.24,4.86.91,9.92-1.02,14.56-1.91,4.61-5.28,8.46-9.58,10.96-4.3,2.5-9.3,3.51-14.23,2.87-4.95-.64-9.48-2.88-13.04-6.39-1.69-1.67-3.08-3.52-4.38-5.5-1.42-2.18-2.7-4.44-4-6.69l-81.41-141.85c-7.86-13.7-10.98-29.7-8.43-45.31,1.76-10.76,6.36-22.61,16.63-33.19Zm-168.71,175.88c30.52-7.9,44.01,11.12,45.42,13.27l-18.08,31.34c-1.29,2.24-2.57,4.48-3.99,6.64-1.29,1.96-2.68,3.8-4.36,5.45-3.55,3.48-8.06,5.7-13,6.34-4.91.63-9.89-.37-14.18-2.85-4.28-2.48-7.64-6.3-9.55-10.87-1.92-4.6-2.25-9.62-1.02-14.44.59-2.29,1.48-4.41,2.54-6.51,1.16-2.31,2.46-4.54,3.75-6.78l12.46-21.61ZM297.26,95.55c4.27,2.5,7.62,6.34,9.52,10.95,1.91,4.63,2.24,9.69,1.01,14.54-.58,2.3-1.48,4.44-2.53,6.55-1.16,2.33-2.45,4.57-3.74,6.82l-93.81,164.27h67.29c21.79,0,37.61,21.25,31.24,42.31-.63,2.09-1.27,3.48-1.54,4.02H102.37c-2.14,0-4.28-.01-6.43-.14-2.34-.14-4.61-.42-6.88-1.06-4.77-1.35-8.94-4.16-11.95-8.16-2.99-3.97-4.61-8.82-4.61-13.81s1.62-9.84,4.61-13.81c3.01-3.99,7.18-6.81,11.95-8.15,2.27-.64,4.54-.93,6.88-1.06,2.57-.15,5.14-.14,7.71-.14h51.15l74.64-130.71-19.16-33.55c-1.29-2.25-2.58-4.5-3.74-6.82-1.05-2.11-1.94-4.25-2.53-6.55-1.23-4.85-.9-9.91,1.01-14.54,1.9-4.6,5.25-8.45,9.52-10.95,4.27-2.49,9.24-3.5,14.14-2.86,4.92.64,9.42,2.88,12.96,6.38,1.68,1.66,3.07,3.51,4.35,5.49,1.41,2.18,2.69,4.43,3.97,6.69l5.93,10.39,5.93-10.39c1.29-2.25,2.56-4.51,3.97-6.69,1.28-1.98,2.67-3.83,4.35-5.49,3.54-3.5,8.03-5.74,12.96-6.38,4.9-.64,9.87.37,14.14,2.86Z"/>
    </g>
  </g>
</svg>